PathFileType	4	(X/Y/Z)	/Users/visionmauri/2_8_1_f_Sports2D/2_8_1_f_Sports2D_m_person00.trc
DataRate	CameraRate	NumFrames	NumMarkers	Units	OrigDataRate	OrigDataStartFrame	OrigNumFrames
30.0	30.0	6	22	m	30.0	0	350
Frame#	Time	Hip			RHip			RKnee			RAnkle			RBigToe			RSmallToe			RHeel			LHip			LKnee			LAnkle			LBigToe			LSmallToe			LHeel			Neck			Head			Nose			RShoulder			RElbow			RWrist			LShoulder			LElbow			LWrist			
		X1	Y1	Z1	X2	Y2	Z2	X3	Y3	Z3	X4	Y4	Z4	X5	Y5	Z5	X6	Y6	Z6	X7	Y7	Z7	X8	Y8	Z8	X9	Y9	Z9	X10	Y10	Z10	X11	Y11	Z11	X12	Y12	Z12	X13	Y13	Z13	X14	Y14	Z14	X15	Y15	Z15	X16	Y16	Z16	X17	Y17	Z17	X18	Y18	Z18	X19	Y19	Z19	X20	Y20	Z20	X21	Y21	Z21	X22	Y22	Z22
0	0.0	0.6304549139337894	0.8302054044538072	0.0301	0.7835736684016251	0.797311352342711	0.0301	0.9703628241499092	0.36715669380611615	0.129	0.9922050755870911	-0.14660790344551525	0.023	1.102913339433242	-0.2116528430645264	0.2179	1.1276652620150314	-0.22062060408686976	0.1804	0.9728040149522905	-0.25575108473838404	-0.0119	0.5186863105570296	0.7211201723932813	0.0301	0.6850831564660429	0.276841118749574	0.129	0.8205016976658465	-0.2051977963651986	0.023	0.88556839066647	-0.41111317454638674	0.2179	0.7965267406921829	-0.4174626043085564	0.1804	0.8345846776376478	-0.3100394913056399	-0.0119	0.43981681302422443	1.5772363956739717	0.0008	0.4313924913571334	1.7650730385037872	0.0655	0.4689320291370414	1.652664109403973	0.1076	0.6846727457844861	1.591045336777541	-0.01275	0.923493150686874	1.2752097577571688	0.0702	1.0742088443531188	0.9722041295743735	0.1076	0.22312809307273676	1.4193116102747505	-0.01275	0.14498819708469035	1.0095750924543934	0.0702	0.19960137429314828	0.7089783539696933	0.1076
1	0.033428844317096466	0.6348606132752902	0.8288858258105297	0.0301	0.7869053517837352	0.8016327587346147	0.0301	0.9644946646616767	0.3673380383833393	0.129	0.9977451750278198	-0.14748283438943502	0.023	1.1036976471311504	-0.19088924337604643	0.2179	1.1344349150729163	-0.2017860302428176	0.1804	0.9862177410243478	-0.25686609053254	-0.0119	0.5182636012487172	0.7247113968084097	0.0301	0.6831515152101659	0.2697676979308673	0.129	0.820393156132849	-0.20874860019472838	0.023	0.8853143817412014	-0.4113886910947837	0.2179	0.8009024293350973	-0.4167728908020595	0.1804	0.8387903842256749	-0.3156801625389266	-0.0119	0.4408718484373658	1.5715547358521684	0.0008	0.43123743902885026	1.7669643463050138	0.0655	0.4685734339687225	1.652039312730498	0.1076	0.6853616248320785	1.5902731186143115	-0.01275	0.9231318329677858	1.2725294526805409	0.0702	1.0790079271727304	0.9704671602093518	0.1076	0.22337794045740017	1.4190740181988928	-0.01275	0.14623276389161932	1.0092107051743935	0.0702	0.19916204891945327	0.7071369096020941	0.1076
2	0.06685768863419293	0.6392776352167036	0.8282307868315736	0.0301	0.7906886588742427	0.8058612459182323	0.0301	0.9542901497297543	0.36400385119289685	0.129	1.0079482055398392	-0.14489838508594308	0.023	1.096193063031193	-0.15474493658016508	0.2179	1.1408981036014356	-0.16755188109298677	0.1804	1.0078360951166971	-0.25380775732414357	-0.0119	0.520204844548679	0.729564585253917	0.0301	0.6814064444785363	0.2671808515248237	0.129	0.8198276727232964	-0.21220521037449439	0.023	0.8828358227127888	-0.397466290723303	0.2179	0.8002184277325978	-0.4102445873058035	0.1804	0.8441450299872955	-0.3193356272458512	-0.0119	0.44301032932875517	1.5645454851811171	0.0008	0.4311261541311707	1.7677950175748909	0.0655	0.4675489205963984	1.6513780540296812	0.1076	0.6855212826647515	1.5892950015334872	-0.01275	0.920791274165256	1.2725024383094126	0.0702	1.082309719679133	0.9705362032149524	0.1076	0.22568962139297838	1.4172378182879264	-0.01275	0.14784596083144427	1.0104272563374788	0.0702	0.20038571094335647	0.7084799635759859	0.1076
3	0.10028653295128939	0.6413887125890257	0.8303841924619821	0.0301	0.7917227714624262	0.810861486658407	0.0301	0.9425906266605623	0.3585774627182799	0.129	1.0212529381996498	-0.13573835867164522	0.023	1.0797974197928804	-0.1085531930432056	0.2179	1.14123506457514	-0.12445702370328617	0.1804	1.032121247019281	-0.24336854100569488	-0.0119	0.5235660174626533	0.7365974943526623	0.0301	0.67828843770151	0.2772467287029895	0.129	0.8166438716199719	-0.21038587179637502	0.023	0.8743151876834216	-0.353368335005345	0.2179	0.7842902751483172	-0.3867438243594368	0.1804	0.8488814829778102	-0.3134916362668635	-0.0119	0.44655581286832735	1.5556857383640406	0.0008	0.43232169425757316	1.7682272084718909	0.0655	0.464814861592174	1.6514595803911643	0.1076	0.6847908439187086	1.5880740489876461	-0.01275	0.915915431438126	1.2761791676579726	0.0702	1.0810232101752042	0.9718030879604818	0.1076	0.23054888859525607	1.4131822044995872	-0.01275	0.15025808815146777	1.014539302806466	0.0702	0.20321129057822931	0.7139971998249602	0.1076
4	0.13371537726838587	0.6413540576811082	0.8353972918330849	0.0301	0.7882455603866702	0.8170495337549993	0.0301	0.9350569320461992	0.35497377435532124	0.129	1.0316602414123772	-0.11962973857907389	0.023	1.0609853263921611	-0.06825160121609256	0.2179	1.1322628483401997	-0.08800903586321825	0.1804	1.0483067565779598	-0.22545385118707229	-0.0119	0.5259499168306114	0.745495240631937	0.0301	0.6726332841336343	0.29646916182672195	0.129	0.8094916358823303	-0.19706808891898464	0.023	0.858731251136404	-0.28214502456458174	0.2179	0.7518154570911205	-0.3447657332276088	0.1804	0.8514577513943722	-0.29348295373303396	-0.0119	0.4506306406639271	1.5452419683773326	0.0008	0.43516676459049813	1.7690966934958434	0.0655	0.4586002700509924	1.6522997605587235	0.1076	0.6846948340458759	1.5856810686818807	-0.01275	0.9098711167569471	1.281875416841009	0.0702	1.074542826683761	0.9725625588071987	0.1076	0.23677786777060517	1.4079917167705056	-0.01275	0.15444135663106243	1.0204267238197686	0.0702	0.20508767506661796	0.7205793970927669	0.1076
5	0.16714422158548234	0.6422727502515927	0.8387597701361891	0.0301	0.7837401189109642	0.8223254634069311	0.0301	0.932168445356598	0.3529236530419079	0.129	1.0351998691713302	-0.09973280732371	0.023	1.04656239561194	-0.04183245926620704	0.2179	1.1191279551553517	-0.06302690791795161	0.1804	1.0534925866130815	-0.20375888249689952	-0.0119	0.5274976330240492	0.7535678585466091	0.0301	0.6678153235324319	0.3088850193980124	0.129	0.8014626377003441	-0.17588099984178496	0.023	0.841788808438251	-0.21702891355683662	0.2179	0.7203021260373222	-0.3006052522395611	0.1804	0.8523203481771016	-0.26863690217790226	-0.0119	0.4539932372371102	1.535391856659949	0.0008	0.4379846363921963	1.7696967839684652	0.0655	0.4502079556763827	1.6513986908450111	0.1076	0.6872600065879042	1.5811433012554397	-0.01275	0.9045134301740059	1.2874508119055665	0.0702	1.0663369177635058	0.9729860980176303	0.1076	0.24287231069188447	1.4027041560222142	-0.01275	0.1604293032379396	1.0250359526089148	0.0702	0.20404526823401803	0.7239987552575129	0.1076
